<svg xmlns="http://www.w3.org/2000/svg" viewBox="0 0 58 52"><path fill="#53565a" d="M16.2 24.2c1.6-.68.93-2.71-.29-.8-2.17.85.78-.53-.11-1.1-2.15-.63-2.56 5.44-2.5 1.4.75-2.55-1.05.73-2.24 1-1.08.47-1.53-1.36-2.23-1.97-.96-.39-2.32.27-3-.85-.73-1.38-1.73 1.42-2.53.62-.85-1.26.22-3.22-.87-4.17-.75-.52-2.68-1.18-2.3-2.33.97-1.27 3.02.38 3.7-.76-.9-1.74 3.1-4.63.4-5.01-.68 1.11-1.02 2.59-2.23 3.47C.48 13.65.01 11.18.77 9.93c.9-.82-1.08 3 .79 3.17 1.16-.55 2.33-2.5 1.3-3.45-.77.65-1.32 2.8-.91.42C3.68 8.38.08 8.88-.1 7.2c.84-2 5.66-.9 2.4-4.38-.78-1.35.5-2.65 1.6-1.44 1.13.38 2.69-3.02 3.44-.26.4 1.66 1.78.74 2.65.02 1.37-1.55 2.85 2.85 3.52-.18.86-2.63 3.25 1.47 4.49-.76 2.11-.07 2.99 1.97 4.97.8 1.45-.15 2.77-2.13 3.93.12 1.34 1.99-3.35-2.3-2.11.83-.2 1.18 2.33 2.46.21 2.15-2.76.03-1.35 2.01.33 2.34 1.6-.2 3.39-1 4.48.7 2.05 1.28-2.46 5.35-.4 2.03.99-1.55-.4-1.64-1.21-1.77-.94-1.91-2.77 1.55-2.2 2.7.62.6.43-1.66.86-1.8 1.26.1-1.03 4.33-1.55 1.78-.33-2.22-2.06-4.36-3.36-5.53 1.14-.32 2.12-1.03 2.4-2.24-.84-2.65-4.37 1.2-2.4 1.02 2.49-2.1-.67 2.2-1.15.46A2.84 2.84 0 0 0 18.7.55c-.92.42-.15 2.09-.1 2.95 1.93 1.47.18-1.4.6-1.4 1.21 1.16 1.75 3.05-.63 2.48-1.47-.28-3.72 2.77-1.23 2.03 1.36.25 1.88-1.39 2.96-1.51.94-.02 4.37 3.66 2.2 3-.09-1.6-1.74-.33-1.82-1.51-.91-1.81-3.15 2.02-2.08 3.31.38 1.22 2 1.04 2.98 1.53.87.46-1.49 1.6-1.54.13-1.37-1.25-1.04 2.42-2.76.38-3.12-.7-1.4 2.43.41 2.86.98-.4-.18-1.24-.75-1.46-1.37-1.52 1.87.65 2.27.89.2-.99.69-2.11.69-.43 0 1.97-2.7 1.5-4.1 1.6 0-.42 2.05-.36.33-.9-2.77.12-1.2 2.3.61 1.7.68-.63 2.2-.55.82.2-1.68.56.15 1.29 1.1 1.23.68-.67 1.12-2.86 1.88-.78.97 1.33 1.49 3.51-2.34 1.25-1.63-1.28-4.07-.85-2.64 1.32.23 1.5 2.35 1.75.98.1-1.09-2.14 1.37.7 1.16 1.58-.83.5-4.9-1.06-2.64-1.13-.19-1.19-3.69-1.77-1.94.33-.66.6-2.54-.61-1.92-1.81 0-1.37 1.68-.11 2.48-.06.51.5 1.71.54.93-.27-.91-.46-1.96-.68-2.82-1.22.38-1.35.55-3.36 1.16-1.06.22 1.79 4.23 1.14 1.75.42-1.64-.88-.06-2.61.03-3.91-.27-1.3 1.13-1 1.97-1.09.7-.06 2.29-2.1.7-1.85-.14.06.3-3.36-1.11-1.42-.7 1.4-1.02 2.6.61 1.87-1.53 1.61-1.51.14-1.48-1.23-.28-.9-.85-3.84-1.94-1.89-.05 1.16-1.57 3.18-.9.97.25-1.62-1.68-.75-1.47.3.81 1.38.39 3.5.01 1.04-1.41-1.75.17-3.08 1.48-4.32 1.96 1.06 4.61.4 5.2-1.67.1-.6-.11-2.76-.85-1.6-.66.6-.84 2.68-1.85 1.2-.28-1.85.1-.65.86-.09 1.23-2.44-2.71-2.5-2.17-.3-1.77.28-1.3 3.3-2.9 2.84.35-1.1 1.84-2.42.46-3.41C8.71.34 9.84 4.76 9.85 5.3c-1.19.01-2.5.08-3.25 1.14-1.18-.83-2.4.9-3.6.55 1.1-.14 2.38-1.42.14-1.03-3.18-.2-2.65 3.2.16 2.63.9-.5 1.91-2.6 2.9-1.33.79 2.68 3.68-.76 1 .03.32-1.39 4.9-1.87 2.26-.16-1.5.94-.6 3.3.74 4.06 1.65.59 1.24 3.9-.09 3-.2-1.96-4.12-2.23-2.9.4.8 1.15 1.68 1.47-.21 1.9-2.15 1.44 2.1 1.77 3.05 1.21 1.55 3.19-2.81.85-4.15-.01-1-.82-2.92.15-3.66-1 .71-.05 1.67.27 2.23-.04-.62-1.08-5.03-1.14-3.1.5.95 1.18 2.5.92 3.83.94.93 1.02 5.62 2.03 2.05 2.22-2.78-.24-.64 2.72 1.23 1.95 1.41-1.43 3.05-1.01 4.76-.45 1.64.27 3.3.16 4.96.18-1.5 1.93 1.1 1.68.7.1 1.34-1.08-.27 1.25.66 1.1 1.6-.02-.05-3.55 2.54-2.6 2.48.23 4.82 1.74 3.8 4.38-.3 1.62 1.64 1.88 2.53 2.8 1.84 1.03 1.12-.78-.16-.87-.52-.46 1.98-.34.88-.85-1.34-.12-1.02-.9.19-.68.46-.57-1.11-.57-1.21-1.14.56.14 1.97-.24.64-.77-1.32-.87.44-.3.83-.49-.23-.46-1.12-.58-1.1-1.18.77.38 1.74.17.6-.46-.86-.9.83-.09.8-.54-1.05-1.68 1.35.1 1.1-.8-.88-1.5 1.61.54 1.26-.38-.42-.85 1.06.07 1.54-.12-.67-1.34 1 .03 1.62-.35 2.34.25 5.44-1.74 7.15-1.27.6 1.56 4.52 1.89 2.62-.4-.8-.92-2.57-2.08-.55-2.73 1.01-.41 2.04-1.52 1.53-2.66-.77-.31-.79 1.76-1.47 1.25-.47-.83 1.9-1.96.7-2.1-1.65.52-1.96 2.53-2.64 3.91-.78 1.32.8 1.73 1.67 2.26.9.9-1.5.1-1.82-.47-.88-.09-2.29.23-2.86.99-1.18-.26-3.09-.23-3.95-.43.64-1.46-.38-1.66-.79-.23-.75.93-3-2.07-1.87-1.68.62.17 1.37 2.06 1.46.71.45-1.39-1.52-2.4-2.56-2.54-1.35 1.55.1 3.7 1.37 4.27-.62.54-1.64.1-2.43.14a6.54 6.54 0 0 1 .92-5.87c1.65-1.78 1.6.42 1.8 1.4 1.99-.59-.24-3.41 2.14-3.5 1.2-.6 2.44-1.1 3.8-.67 2.94.48-1.02 1.43-.39 2.54.67-.28 3.17-.62 1.55.13-.4 2.14 4.37-1.3 1.12-1.25.46-.6 1.41.07 2.06-.15 2.18.55 1.11-1.76-.38-2-1.57-.06-3.2.12-4.73-.09.05-.56 2.15-1.05 1.95-2.29.08-1.37-2.47-3.02-3.12-1.86-.41 1.32 1.03 1.3 1.94 1.62 1.02.4-1.5 2.13-1.12.7 0-.86-.94.11-.81.53-.7 2.14-1.5.61-.6-.77.19-.79-.3-1.8.13-2.5.84-.22 1.95-1.14 2.58-.1.69 1.58 2.2 1.07 2.38-.24-.58-.18-2.62-.58-1.17-1.07.77-.44 2.55-.45 1.9-1.73-.31-1.25-2.86-.43-2.9.7 1.35.56 5-3.26-1.3 1.09-.66.04-1.87.9-2.23.41l1.2-1.6c-1.33 2.8 2.8-.83.1-.58-1.94.32-2.85 4.9-4.83 3.14 1.13-1.1.5-2.6-1.14-1.98-1.1.41-1.54 1.74-1.73 2.78 1.24.05 2.67-.1 1.5 1.44-1.37.82-2.9-1.54-4.55-1.26.51-.94-.64-1.89-.85-2.84 1.26.01.65 1.56 1.6 2.02.41-1.02.63-4.98 2.9-4.02 0 2.77 3.25-.37 3.6 2.2C35.36 4.61 35.93.05 37.8.51c1.92-.98 1.15 2.37 2.48.32.87-1.32 4.58-1.16 3.32.87.62 2.08 2.21.88 2.96-.53C47.76-.18 48 2.06 48 2.92c.62-.53 1.5-1.86 2.6-2.07 1.56-.76 3.22.96 1.4 1.35-1.42-2.29-3.74 1.1-4.52 2.47-2.41 2.56.2-1.44 0-2.63-1.66-.83-1.9 3.37-2.72 4.43-1.84 1.66-.45-2.3-2.08-1.98-1.4.26-2 4.66-.63 2.54.1-.37 1.01-1.82.83-.78.16 1.13-2.21 2.42.24 1.99.85-.83 3.83-1.55 3.92-.47-1.01.57-1.83 1.54-1.24 2.73.63.66 1.22-1.67 1.6-1.1-1.66 1.62.16 3.5-1.09 5.22-.73.2-2.72 1.36-1.31 1.88 1.41.45 1.61-2.23 2.25.06.68 1.26-2.02.95-1.35 2.44-.83 1.3-3.03-.66-4.36-.51-2.39.53-4.91.77-7.23 1.44-.6 1.92-.65 2.55.83 1.4.76 1.15.24 2.58 1.61 3.66.12 1.36 1.48 2.99 2.65 3.07-1.3 2.36-2.7-3.8-3.16-.22-.36 1.25.46 2.5 1.1 3.5 1.68 1.19 2.59.4 2.38-1.27.4-1.49-.24-3.4 1.24-4.41 1.25-1.44-.84-1.7.12-2.75 1.13-.67.58-2.82 2.1-2.51 1.52-.19 2.42 1.15 2.96 2.34-1 2.44 1.67 3.68 1.73 6.24 1.02 2.54 0 5.11.1 7.63.6 3.9.7 7.85.93 11.79.86.7.95-1.81 1.39-.4.02.78 1.1 2.33.95.7.16-1.75.84.54 1.32.8.22-.76-.16-1.72-.06-2.5.8.56 1.21 1.79 1.96 2.3.66-.04-.37-1.54.54-.9.33.17 1.01 1.78 1.13 1-.54-.99 2.62 1.26 1.45 1.2-1.59.35-3.4-.33-4.88.62-2.6.22-5.23-.12-7.81.38-1.06 0-3.57.12-2.79-1.5-2.04-1.27-4.98 1.1-7.1-.4-1.74-2.29-4.33-3.72-5.98-6.1-.82-1.03-2.05-3.67.18-3.65 1.57-.81-.85-.23-1.2-.95.66-.57 3.18-1.33.81-1.28-1.54-.24.37-.99.9-1.37.14-.32-2.92-.62-.76-.93 2.35-.64-1.3-.5-.65-1.22.58.06 2.24-.47.9-.76-1.74-.19-.41-.63.4-1.04.1-.5-.92-.05-1.2-.2-1.1-.51 2.87-1.15-.22-1.54.65-.43.82-1-.28-1.42-2.16-.98-4.6-3.43-3.16-5.94.54-1.37-1.48-2.03-2.54-2.24-1.69-.89-1.75 1-1.3 2.04 3.35.5 3.05 5.41 2.56 7.86-1.08 1.59-3.81 1.1-3.95-.88.09-2.03-1.53-.79-2.62-.52-2.58.81-4.8 2.55-7.54 2.94-2.42.47-5.8.94-7.5-1.17-.89-3.19.16-8.22 4.35-7.73 1.52-.13 2.03 1.3 1.8 2.59 1.16 1.52 4.83-.08 6.45-1.13.53-.2 1.24-1 1.75-.86zM40 37.5c.47 2.77.04 5.6-.12 8.4-1.05 2.08 3.43 2.25 2.83.24-.41-.99-.37-4.35.15-1.88.85 1.61-.36 4.83 2.38 4.13 2.98 1.1 2.86-2.82.9-3.85-2.63-1.78-3.43-5-5.24-7.44-1.54-.27-3.54-.42-3.3-2.4-.69-1.17 3.63-2.07 1.03-2.17-1.8.52-2.38-1.43-2.85-2.73-.16-1.53-.3-2.88-2.08-3.5-.95.38-2.4.32-2-1.4-1.08-1.12 1.25-1 .8-2.2-.9-.17-2-2.04-.2-1.4 1.4.97 1.78-2.27-.33-.81-2.03.14-1.2 1.92-1.5 2.97-.12 1 .03 2.29.13 3.45-.11 1.28.01 2.6 1.11 3.46 1.05 1.23 2.46 2.38 2.43 4.16 2.05.69 3.4 4.38.46 4.87-2.16.13.2-2.89-.3-.84 1.34 1.86 2.5-3.25-.07-2.66-.86 0-2.56.63-2.54 1.58.57 2.45-.12 5.16.61 7.62.54 1 1.33-1.95 1.4-.23-.3.88.45 2.02.63.6.66-.4-.1 1.5.66 1 .33-.5.74-1.3 1.41-1.27.12.6-1.07 1.77-.4 1.9.23-.72.79-.83.9.1.73.3.73-1 1.51.03 1.4.54.75-1.13.89-1.95-.03-2.57.42-5.11.5-7.68.03-.07.3.1.2-.1zm15-20.4c-1-.3-3.62.09-1.35.8 1.19.47 4.29.48 2.15-1.25-1.25-1.41-4.45.5-3.26-2.48.42-1.64-1-3.48-1.83-1.35-.89 1.71.81 3.1.69.78.9-.3-.04 2.14.37 2.53-.67.73-3.54-.9-2.37-1.33 1.74-2.01-1.43-1.95-2.02-.29-.8.22.17-1.89.62-2.11 1.51.9 4.81-1.36 1.76-2.05-1.2-.66-2.7 1.2-.77.75 1.24-.06-.9.5-1.35.56-1.37-.62 2.1-2.43.46-3.86 1.82.25 1.52 2.66 3.44 2.86 1.54 1.16 1.12-1.18 2.61-.71 1.46.13 2.06 1.25.25.54-2.7.77 4.8 2.57 2.06-.75-1.4-1.45-3.79.79-3.95-1.43-1.97-.71 2-1.93-.48-2.38-.79-1.26-4.45-.64-1.62.28 1.1 1.04-3.06-1.34-1.71.49.93.53 3.95 1.48.87 1.03-.99-.35-1.82-1.05-2.87-1.23.14-.75 1.58-1.12 2.24-1.7 1.05-1.01 2.98 1.22 2.88-1.15 1.5-.98 3.27-5.47 5.02-2.41.79 1.07-.23 1.95 1.16 2.26.54 1.81-3.26 3.06-.55 3.99 1.38 1.36-.77 2.7-.3 4.35-1.68.27-1.54 2.8-1.35 4.06 2.3 1.1 1.27 4.08-1.19 2.69-2.96-1.61 1.09 3.67-2.5 2.32-1.2-.6-2.62-1.57-3.05.23-1.43.36-2.99-2.42-2.06-2.94-.23 1.84 2.17 3.53 2.4.83-.13-1.23-1.36-2.02.65-1.6 1.27-.88 4.1-1.42 4.95-.33zM20.9 39c1.2-.06 1.18 1.68.14.38-1.54 0-1.4 1.07-.51 1.56-1.2 1.36-.19-1.49-.03.32-1.39 3.58 2.63.21 2.14-1.7 1.74.22 1.61-3 2.45-2.56-.2 1.34.5 2.76 1.15 3.87a25.11 25.11 0 0 0 4.59 6.05 6.65 6.65 0 0 0 2.3 2.42c-1.35-.16-1.47.66-.07.72.73 1.02-1.51-.1-2.06-.26.45 1.92-1.27-.34-2.1.3-1.2 1.03-2.53 1.8-3.96.7-1.23-.53-2.34.19-3.57.28-1.78.29-3.61-.06-5.37.32-.9-.66-2.23.1-2.99-.62-1.6-1.3-3.66.97-5.56-.22-1.85 1.17-1.8-1.88-3.25-.26-1.42.12-2.99-.27-4.03.81.08-2.37 4.08-.74 5.67-2 1.73.16.62-1.89 1.42-2.77 1.09-1.74.9 2.78 2.12 2.27.57-2.25-1.8-4.2-.85-6.36.15-1.81 2.29-2.16 2.18.14.27 1.2-1.08 5 .7 1.94.62-2.03 3.11-1.6 1.85.36.14 1.1-3.04 1.8-1.6 2.21.67-1.15 3.2-1.44 1.44-.02-.87-.05-1.98 1.11-1.54 1.72.66-.3 1.44-1.82 1.84-.4.85-.36 1.46-3.87 1.7-1.88-.37 1.51.86 1.06 1.7.48.5.18-.7 1.95.88.81 1.13-.35 2.13.8 3.22.19 1.55-.73 4.5-1.3 4.2-3.58-.3-.93.56-2.46.4-.69-.19 1 .46 2.44-.5 3.07a13.3 13.3 0 0 1-6.84 1.4c-1.96.7-4.14.42-6.12 1.13-.55 0-2.56.78-1.13.87 2.73-.17 4.9 1.24 7.54.5 1.69.1 4.03 1.17 5.12-.78.51-1.2 1.8-1.22 2.93-1.29 1.9.6-.38 1.2-1.36.83-2.08.42.56 1.84 1.58 1.5 1.7-.06 2.52-1.63 4.33-1.67-.67-2.82-3.83-4.49-4.95-7.19-.55-.86-.88-2.67-2.25-2.1-1.75.11 1.68 3.44-.7 3.34-1.05-.72-2.02.34-2.95.76-1.2-1.27-.2-2.8-1.5-3.6.62-.6 1.5-1.09 2.2-1.3zM2 30.2c.58 1.93 3.1 1.96 4.79 1.81 3.45-.05 6.7-1.38 9.75-2.9 1.88-1.53 4.98-.28 6.56-1.11-.42-1.77-.1-4.65-2.85-4.26-4.33-.34-7.26 4.16-11.63 3.53-2.02-.01-4.1-.23-5.9-1.16-.7 1.18-.75 2.75-.72 4.09zm44.5 10.5l-1.75.1c1-.46 2.78-2 .13-.9-1.63.32 1.04-.77 1.13-1.34-.3-.42-2.67 1.02-1.58.06.57-.3 2.48-1.33.8-1.07-.27-.05-2.42.44-1.41-.12 1.79-1.24.07-.64-.62-.89.86-.5 2.27-1.65 0-.84-.78-.2 1.17-.7 1.43-1.1.13-.47-2.6.68-1.25-.33a6.4 6.4 0 0 0 3.12-2.17c-.9.1-2.85 2.6-3.4 1.5.87-1.05 2.33-1.34 3.4-2.2.03-.99-1.69.87-2 .44 1.11-.78 2.52-2.37.4-1.24-.11-.6 2.7-2.82.32-1.6-1.2.22 2.21-2.42-.32-1.3-.53-.6 1.83-1.74-.3-1.6.9-.18 1.1-1-.02-.63-1.76.06-.97 2.54-2.24 3.22 0 .46-1.42 3.57-1.34 1.71-.69-1.25.12-2.74-.2-4-.81 1.72-.18 3.67-.63 5.47-.07 2.26 3.24-.57 2.83-2.02 1.15-.94-.63 1.75.5 1.75-1.75.87-3.61 2-2.19 4.28 1.18 1.83 2.13 6.15 4.85 5.56.28-.14.92-.5.34-.74zm-20-21.1c-.7 1.87-2.74-1.5-3.71.21-.48-1.3 2.95-1.26 2.24-3.18.5-1.57-.75-1.37-1.77-.74-.85.04-.7 1.4-1.3 1.44-1.01-.96-1.33-2.11.14-2.73 1.06-1-.12-4.2 2.22-2.6 1.34.02 1.78 2.47-.08 1.16-1.99-.7-.06 1.3-1.64 1.74.27.95 1.72-.3 2.4-.5 1.38-.22.92 1.89 1.3 2.8.04.75.5 1.8.2 2.4zm12-4.3c.19-3.05 2.15 2.24 3.25.8.58-1.42-.68-3.34-2.15-3.2.05.65 1.63 2.41 0 1-1.94-2.9-3.15 3.58-.62 3.8.98-.16 1.45-1.88.36-2.36-.62-.67-.24.68-.33 1.02-.28.49-.59-.88-.51-1.06zM4.4 3.4c.75.5.86 2.92 1.82 1.75-.4-1.46.06-2.68.74-3.9C6.8-1.1 4.1 1.84 5.3 3 4.36 2.85 3.99 1.52 3 1.3c-.12 1.5.06 3.98 1.79 4.5.19-.78-.62-1.9-.39-2.4zm50.5 2.9c1.3-.11 3.92-2.17 1.94-2.78-1-.5-1.92 3.07-2.15 1.28 2.05-1.14 1.53-3.69-.85-2.12-1.57.15-2.26 3.59-.7 1.56.65-.95 2.47-1.02.88-.17-1.26.63-.58.93.11 1.44.13.4.55.6.77.79zM36.4 6c-.75.83-2.87-1.72-2.58.93.14 1.49 1.85 2.59-.41 3.07-1.36 1.12-1.63-.64-1.08-1.66.34-1.54.71-3.85 2.78-3.64 1.41-.22 1.1.38 1.29 1.3zm1.4 6.7c-.22-1.89-2.01-2.76-2.67-.5-.63.46-.25 3.94.47 2.63.01-2 1.14-2.25.51-.3-.12 2.85 1.74-.97 1.69-1.83zm-31.2 2c.53-2.8-2.76-3.4-2.3-.4-.06 3.1 1.92 2.99 2.3.4zm27 19.3c.13-.96-2.46-4.04-2.57-2.29.17 1.35.1 2.81.5 4.09.95-.06 2.25-.98 2.07-1.8zm11.7-11.7c-.46-.88-3-1.58-3.1-.1 2.05.32-1.1 1.6.72 2.3.55-.68 1.49-3.6 1.08-1.3-.04.99-1.79 2.61-.1 1.8 1.04-2.38.64-.5 1.15-.29.54-.55.5-1.72.25-2.41zM54.7 7c-2.62.24 2.56.91.4 1.07-1.2-.49-2.55-.3-.8.63.78.4 3.42.86 3.22-.56-.5-.85-1.98-2.18-2.82-1.14zm.6 6.7c.68-1.65-3.01-3.15-1.55-1.17 1.07 1.42-.06 1.91-.35.27-1.15-.26.36 3.59 1.6 2.7a6 6 0 0 0 .3-1.8zM6 9.7c-.9 1.92 1.2 2.78 2.86 2.68 2.2.04-.12-.7-.86-1.08-1.14-.73.88-.58 1.3 0 .96-.93-2.65-1.68-3.3-1.6zm23.1 5.8c.36 1.45-.64 4.44-1.24 1.36-1.1-1.76-.93-4.61 1.14-2.26.07.28-.14.7.1.9zM4.2 20.4c-.22-.7.85-2.38-.5-1.9-.62 1.01-.16 2.34-.07 3.49.78.1 1.28-1.18 1.87-1.69 1.02-2.42-.95-1.78-1.3.1zm46.2-2c.77-.53 2.79 1.16 1.31 1.03-.94-.99-2.76-.56-.85.57 2 1.48 3.34-1.08 1.24-2.23-.37-.2-2.42-.18-1.7.63zm-20.8-16c.14.65-1.77 3.21.27 1.62 1.88-1.98-.31-5.1-1.27-1.59-.54 1.86.69.64 1-.03zm12.2 24.3c.37.33.34 2.29.69.58.79-1.03-.67-4.5-.9-2-.71 1.6-.34 3.43-.49 5.12.63-.68.7-1.88.7-2.83v-.87zM8 3.8c.58-.06 2.1-1.06.34-1.33C6.1 2.32 6.21 4.2 8.2 5.03c1.03.74 1.92-.76.6-.94L8 3.8zm-.7 27c-1.51 1.19-2.12-.8-1.7-2.06.38-.8 2.33-.38 2 .73.07.48-.2.9-.3 1.33zm33.4 18c1.54 1.01 2.94-.74.79-.9-1.2-.5-3.4.15-3.62 1.14.88.2 1.92-.02 2.83-.24zm3.3 2c1-.27 2.6-.73 3.07-1.57-.77-.3-2.01-.75-2.73-.14-.79.71-2.53 1.44-.34 1.71zM26.9 11.7c1-2.02.83 1.85 2.28-.06.65-1.68 2.07-2.93 1.13-.56-.38.83-.4 2.65-1.7 1.81-.61-.29-1.66-.3-1.71-1.19zm12.6 24.7c1.02.03 1.11-1.18.94-1.94.42-1.17-.97-1.6-1.62-.76-1.27.7-.39 1.13.48.4-.04.6-2.14 2.05-.54 1.42 1.25-1.08.57.03-.06.64.77-.18 1.92-1.06.8.24zM14 11.2c.11.83-.76 4.22-1.3 2.1-.19-.9-1.12-1.81-.2-2.59.31-1.04.97.29 1.5.49zm1.5 17.2c-1.47 3.12-3.6-1.96-.7-1.7.86.09.48 1.1.7 1.7zM11 22c-2.3.44-.2 4.17 1.1 1.4 1.81-2.26-1.44-1-1.32-.2.03-.4-.03-.84.22-1.2zm4.8 27.5c-1.08-.13 2.07-.72 2.94-.6 1.48.36 2.65.08 3.97-.53.73.95-1.28.99-1.82 1.18-1.7.41-3.4-.1-5.09-.05zm-12.4-20c.84 1.65-1.32 1.02-.32-.37.44-.64-.69-2.17.7-1.42.47.16.82 2.4.92.92.1-1.51 1.51-.69.3.47.08.89-.54 2.67-1 .26-.45-1.26-.38-.17-.6.14zm22 4.8c-.14-1.57-.3-4.17.33-5.03.48 1.4.03 3.1.1 4.6.1 1.04-.04 3.93-.71 1.36-.59-.59.4-.45.28-.93zm10.4-8c-.71-.48-1.15-1.38-1.4-.12 1.08.86 2.1 1.88 1.98-.24.48-1.6-3.13-2.86-.98-.94-.2.46.18 1.27.4 1.3zM6 25.4c2.11.25 1.6-1.62-.42-1.11C4.43 24.06 2 25.57 4.1 26.1c-.24-1.18 1.98-1.83 2.2-1.2-.3.14-1.16.44-.3.5zm2.2 5.8c.35-.81-.22-1.9.3-2.6.84.8 1.32 1.5 1.1-.14-.3-1.28 1.31-.29.45.7-.02.62.4 2.26-.57 1.2-.55-.87-1.58-1.4-.58.24.58.56-1.18.1-.7.6zm13.2.5c2.03 1.05 2.35-3.83 1.33-1.84.21 1.1-3.62.6-1.56 1.82l.33.02zm4.2-5.2c.58 1.3 2.06 1.92 3.27 2.54.97 1.57 4.19 2.52.43-.16a20.42 20.42 0 0 0-3.7-2.38zm-15.4 17l-.5-1.9c-.54-.04-.79 1.23-.8 1.8.3.5.55 2.57 1.1 1.9l.2-1.8zm2.6-15.7c.61 1.1-2.16.23-.28 1.09 1.96.6-.85 2.37-1.12 1.71-.77-1.76 1.26.32 1.17-.79-1.43-.3-1.53-1.72-.23-2.16.05-.57.4-.12.46.15zM6.4 8.9c-1.15-.7-4.42.75-1.74.65 1.12-.2 2.42-.09 3.43-.48.35-.43-2.15-.86-1.69-.17zm14.3 18.5c-1.36 1.03-.14-1.44.8-.1.12-.64-2.8-2-.4-2.3 1.15-1.06.83 1.76-.2.3-.4.5 2.66 1.95.37 2.3a1.3 1.3 0 0 1-.57-.2zm-1-1c0 1.85-2.34.92-1.89-.63-1.5-.49 1.09-.95.6.5.03 1.78 1.43.22.6-.71-.65-1.83 1.28.09.69.84zM20 29c-.61 1.99 2.68 1.52 2.27 0-.53-.69-1.6-.11-2.27 0zM7.4 25.4c-.88.58-2.83-.65-2.56.88 1.37.54 3 1.07 2.56-.88zm16-14.3c-1.06.1-1.38-1.58-.7-1.9 1.04-.32 2.39 2.09.7 1.9zm-5.7 16.4c-1.44 1.35-1.88.76-2.07-.84-.93-1 1.97-1.43.77 0-.2 1.65.74.62.97.28.07.05.35.87.33.56zm1.2-6.9c-.8-.57-.79-2.47.6-1.54 1.62.09.44 1.02-.33 1.49-.07.1-.18.04-.27.05zm25.7-16c.35-1.53-2.05-2.73-1.98-.94.71-.05 2 1.89 1.98.94zM12.8 43.3c-.9.04-2.6 3.42-1.13 2.5.77-.42 1.31-1.68 1.13-2.5zm44-41.1c-.15-1.54-2.1-2.58-2.15-.54.66.15 1.95.38 2.15.54zM6.2 29c-.4 1.44.83 2.16.85.34.36-.83-.48-1.03-.85-.34zm4-13.5c-2.28-.07-2-3.02-.5-.7l.29.28zm3.7 12c-.18 1.57 1.48 1.54.82-.02.11-.66-1.03-.7-.82.02zm14.9-19c-.53.65-.9 1.78-1.8 1.9.28-.68.97-1.49 1.56-1.9.09-.05.3.24.24 0zm20 10.4c.27 1.84-1.98-1.9-.6-1.5l.6 1.5zM51 2.4c.9.75-1.17.93-1.69 1.34.15-.61 1.04-1.16 1.69-1.34zM33.8 24.2c-2.07 1.32 2.11 1.21 0 0zM7.4 49.4c-2.45.8 2 1.14 1 .1-.26-.08-.92.16-1-.1zm35.2-28.8c-.5 1.03 1.3.43 1.9.8.88-.69-1.47-.86-1.9-.8zm-22-10c-2.08-.64.76-2.3.35-.17l-.35.07zM10 20.5c.86.62-2.48.99-2.03.24.66-.14 1.36-.15 2.03-.24zm5.7-16c-.53-.16-2.09-.9-1.8-1.2.65.18 1.89.24 1.8 1.2zm8.1 11.6c.24.69-1.28 3.52-.75 1.34.2-.44.23-1.23.75-1.34zm19.6-6c-.3.13-2.96-.7-2-.8.58.31 2.11.17 2.08.84-.03.02-.15.15-.08-.04zM35 22.9c-.9-1.18-1.37 1.29-.15.45l.15-.45zm-13-9.7c-.46 1.35-2.1 1.96-.8.28.27-.37.55-.75.8-.28zm-11.3-2.8c-.49-.51-1.57-1.59-1-2.2.27.75.91 1.42 1 2.2zm-.5 6.6c-.35-.45-2.67.4-1.68-.3.38-.19 2.34-.37 1.68.3zm40.5-8.5c.56.2 1.26.72 1.5 1.3-.44-.05-1.97-.85-1.5-1.3zM21.5 10c-.84.32.15-3.07.1-.82-.09.2.16.81-.1.82zm-7.4-1.8c0 .73.66 2.08.29 2.39-.22-.68-.7-1.74-.29-2.39zm34 7.2c.68.42 1.85 2 .4 1.03-.36-.22-1.2-.84-.4-1.03zM25.3 5.1c1.65-.1.33.71-.6.4-.8-.42.25-.44.6-.4zM35 7c.86 1.01.62 2.42-.19.56-.3-.04.03-1.08.19-.56zm-6 34.3c2.13-.77-.65-1.36-.28-.2l.28.2zM17.2 5.8c.61-.07 1.2-.9 1.8-.6-.45.3-1.45 1.26-1.84.73a.3.3 0 0 1 .04-.13zm-12 9.8c-.4-.9.28-2.82.3-.92-.1.3.26 1.07-.3.92zm26.1-12c.7-.56 2.14-1.28.77-.03-.51.4-.9 1.09-.77.03zM25 24.4c.58 2.27.76-2.49.11-.44l-.11.54zm22 17.4c-1.04.18-2.92 1.1-.58.59.24-.14.48-.32.58-.59zM19.6 8c.29 1.44-1.44 3-.1-.1zm26 35.4c.68.54 1.79-.75 1.03-.64-.24.28-1.74.26-1.03.64zm-3.8-19.8c1.32-1.84-1.43-.49-.13-.1h.13zm-31-7.8c.28-1.34.87-.95.54.2-.3.54-.3-.02-.54-.2zm22.6 7.3c-1.86 1.1 1.65.92 0 0zm-.2 2.5c-.68-1.55-1.29 1.1 0 0zm-1-2.6c-1.1 1.7-1.15-1.62 0 0zm.2 1c-1.61.78 1.58 1.18 0 0zm-2.7 18c-1.47.12.9 1.02 0-.1zm-19-38c-.44-1.4.4-2.16.17-.27l-.17.37zm22.5 17.6c-.97.64.75 1 0 0z" data-testid="nonsolus-tree"/></svg>