<?xml version="1.0" encoding="UTF-8"?>
<svg id="Layer_1" data-name="Layer 1" xmlns="http://www.w3.org/2000/svg" xmlns:xlink="http://www.w3.org/1999/xlink" viewBox="0 0 1126.54 414.25">
  <defs>
    <style>
      .cls-1 {
        fill: url(#linear-gradient);
      }

      .cls-2 {
        fill: #fff;
      }
    </style>
    <linearGradient id="linear-gradient" x1="-36.73" y1="507.37" x2="-35.73" y2="507.37" gradientTransform="translate(23870.57 329232.76) scale(648.49 -648.49)" gradientUnits="userSpaceOnUse">
      <stop offset="0" stop-color="#6f4836"/>
      <stop offset=".49" stop-color="#ffd100"/>
      <stop offset="1" stop-color="#0082a8"/>
    </linearGradient>
  </defs>
  <path class="cls-2" d="M272.44,403.07h68.42V26.74h-70.4l-1.9,3.58c-31.71,59.85-63.42,119.69-95.14,179.54-31.71-59.85-63.42-119.69-95.14-179.54l-1.9-3.58H6v376.33h75.15v-221.25c28.78,54.24,57.55,108.48,86.33,162.72l5.95,11.21,5.95-11.21c28.78-54.24,57.55-108.48,86.33-162.72v221.25h6.73ZM554.95,301.99c0,35.9-22.86,56.5-62.72,56.5s-62.2-21.12-62.2-56.5v-78.28c0-35.38,23.45-56.5,62.72-56.5s62.2,20.59,62.2,56.5v78.28ZM612.49,298.36v-71.02c0-68.81-44.76-109.89-119.74-109.89s-120.78,41.08-120.78,109.89v71.02c0,68.81,44.96,109.89,120.26,109.89s120.26-40.05,120.26-109.89M1113.8,169.32h-71.27c16.8-16.8,33.59-33.6,50.39-50.4l4.76-4.76-4.76-4.76-38.08-38.08-4.76-4.76-4.76,4.76c-16.62,16.62-33.24,33.24-49.86,49.86V43.7h-67.32v78.55c-16.98-16.98-33.96-33.96-50.93-50.94l-4.76-4.76-4.76,4.76-38.09,38.09-4.76,4.76,4.76,4.76c16.8,16.8,33.6,33.6,50.4,50.4h-164.87V6h-71.01v397.07h71.01v-166.43h164.87c-16.8,16.8-33.6,33.6-50.4,50.41l-4.76,4.76,4.76,4.76,38.09,38.08,4.76,4.76,4.76-4.76c16.98-16.98,33.96-33.96,50.93-50.94v78.54h67.32v-77.47c16.62,16.62,33.24,33.24,49.86,49.86l4.76,4.76,4.76-4.76,38.08-38.08,4.76-4.76-4.76-4.76c-16.8-16.8-33.6-33.6-50.4-50.41h78.01v-67.32h-6.73Z"/>
  <path class="cls-1" d="M272.44,403.07v-6h62.42V32.74h-60.79l-.21.39c-31.71,59.85-63.42,119.69-95.14,179.54l-5.3,10.01-5.3-10.01c-31.71-59.85-63.42-119.69-95.14-179.54l-.21-.39H12v364.33h.73s61.69,0,61.69,0h.73v-215.25l11.3-2.81c28.78,54.24,57.55,108.48,86.33,162.72l.65,1.22.65-1.22c28.78-54.24,57.56-108.48,86.33-162.72l11.3,2.81v215.25h.73v12h-12.73v-227.25h6l5.3,2.81c-28.78,54.24-57.55,108.48-86.33,162.72l-11.25,21.2-11.25-21.2c-28.78-54.24-57.55-108.48-86.33-162.72l5.3-2.81h6v227.25H0V20.74h80.01l3.59,6.77c31.71,59.85,63.42,119.69,95.14,179.54l-5.3,2.81-5.3-2.81c31.71-59.85,63.42-119.69,95.14-179.54l3.59-6.77h80.01v388.33h-74.42v-6ZM554.95,301.99h6c.05,19.18-6.25,35.27-18.4,46.17-12.12,10.91-29.41,16.33-50.32,16.33-20.52.01-37.67-5.59-49.74-16.54-12.09-10.94-18.51-26.99-18.46-45.96v-78.28c-.05-18.98,6.43-35.04,18.62-45.97,12.16-10.95,29.43-16.53,50.1-16.52,20.76,0,37.93,5.42,49.96,16.34,12.05,10.91,18.29,26.99,18.24,46.15v78.28h-12v-78.28c-.59-33-18.72-49.81-56.2-50.5-37.16.62-56.21,18.16-56.72,50.5v78.28c.52,32.38,19.4,49.88,56.2,50.5,37.84-.69,56.14-17.53,56.72-50.5h6ZM612.49,298.36h-6v-71.02c-.53-65.86-40.95-103.27-113.74-103.89-73.48.62-114.26,38.07-114.78,103.89v71.02c.52,65.84,41.12,103.27,114.26,103.89,74.35-.69,113.66-36.93,114.26-103.89h12c.05,36.12-11.47,65.54-33.42,85.56-21.93,20.03-53.62,30.34-92.84,30.33-38.7.01-70.38-10.58-92.41-30.71-22.06-20.11-33.89-49.51-33.84-85.18v-71.02c-.05-35.68,11.84-65.08,33.99-85.19,22.12-20.12,53.93-30.71,92.79-30.7,38.54-.01,70.1,10.59,92.04,30.72,21.96,20.12,33.74,49.5,33.7,85.17v71.02h-6ZM1113.8,169.32v6h-85.76l10.24-10.24c16.8-16.8,33.59-33.6,50.39-50.4l.52-.52-.52-.52-38.08-38.08-.52-.52-.52.52c-16.62,16.62-33.24,33.24-49.86,49.86l-10.24,10.24V49.7h-.73s-53.86,0-53.86,0h-.73v87.03l-10.24-10.24c-16.98-16.98-33.96-33.96-50.93-50.94l-.52-.52-.52.52-38.09,38.09-.52.52.52.52c16.8,16.8,33.6,33.6,50.4,50.4l10.24,10.24h-185.35V12h-59.01v385.07h.73s57.54,0,57.54,0h.73v-.73s0-165.7,0-165.7h185.36l-10.24,10.24c-16.8,16.8-33.6,33.6-50.4,50.41l-.52.52.52.52,38.09,38.08.52.52.52-.52c16.98-16.98,33.96-33.96,50.93-50.94l10.24-10.24v87.03h55.32v-85.95l10.24,10.24c16.62,16.62,33.24,33.24,49.86,49.86l.52.52.52-.52,38.08-38.08.52-.52-.52-.52c-16.8-16.8-33.6-33.6-50.4-50.41l-10.24-10.24h86.5v-55.32h-.73s0-6,0-6v-6h12.73v79.32h-84.01v-6l4.24-4.24c16.8,16.8,33.6,33.6,50.4,50.41l9,9-9,9-38.08,38.08-9,9-9-9-49.86-49.86,4.24-4.24h6v83.47h-79.32v-84.54h6l4.24,4.24c-16.98,16.98-33.96,33.96-50.93,50.94l-9,9-9-9-38.09-38.08-9.01-9,9-9c16.8-16.8,33.6-33.6,50.4-50.41l4.24,4.24v6h-158.87v166.43h-83.01V0h83.01v163.32h158.87v6l-4.24,4.24c-16.8-16.8-33.6-33.6-50.4-50.4l-9-9,9-9,38.09-38.09,9-9,9,9c16.98,16.98,33.96,33.96,50.93,50.94l-4.24,4.24h-6V37.7h79.32v83.47h-6l-4.24-4.24c16.62-16.62,33.24-33.24,49.86-49.86l9-9,9,9,38.08,38.08,9,9-9,9c-16.8,16.8-33.59,33.6-50.39,50.4l-4.24-4.24v-6h71.27v6Z"/>
</svg>