<?xml version="1.0" encoding="UTF-8"?>
<svg id="Layer_1" data-name="Layer 1" xmlns="http://www.w3.org/2000/svg" xmlns:xlink="http://www.w3.org/1999/xlink" viewBox="0 0 330.4 330.54">
  <defs>
    <style>
      .cls-1 {
        fill: url(#linear-gradient);
      }
    </style>
    <linearGradient id="linear-gradient" x1="-45371.43" y1="165.27" x2="-9661" y2="165.27" gradientUnits="userSpaceOnUse">
      <stop offset="0" stop-color="#6f4836"/>
      <stop offset=".49" stop-color="#ffd100"/>
      <stop offset="1" stop-color="#0082a8"/>
    </linearGradient>
  </defs>
  <path class="cls-1" d="M317.67,125.61h-56.79c13.38-13.38,26.77-26.77,40.15-40.15l9-9-9-9-38.08-38.08-9-9-9,9c-13.21,13.21-26.41,26.41-39.62,39.62V0h-79.32v70.06c-13.56-13.56-27.13-27.13-40.69-40.69l-9-9-9,9-38.09,38.09-9,9,9,9,40.15,40.15H0v12h98.35l-10.24-10.24c-16.8-16.8-33.6-33.6-50.4-50.4l-.52-.52.52-.52,38.09-38.09.52-.52.52.52c16.98,16.98,33.96,33.96,50.93,50.94l10.24,10.24V12h55.32s0,.73,0,.73v85.22l10.24-10.24c16.62-16.62,33.24-33.24,49.86-49.86l.52-.52.52.52,38.08,38.08.52.52-.52.52c-16.8,16.8-33.59,33.6-50.39,50.4l-10.24,10.24h86.49v55.32h-86.5l10.24,10.24c16.8,16.8,33.6,33.6,50.4,50.41l.52.52-.52.52-38.08,38.08-.52.52-.52-.52-49.86-49.86-10.24-10.24v85.95h-55.32v-87.03l-10.24,10.24c-16.98,16.98-33.96,33.96-50.93,50.94l-.52.52-.52-.52-38.09-38.08-.52-.52.52-.52c16.8-16.8,33.6-33.6,50.4-50.41l10.24-10.24H0v12h69.39c-13.39,13.39-26.77,26.78-40.16,40.16l-9,9,9.01,9,38.09,38.08,9,9,9-9c13.56-13.57,27.13-27.13,40.69-40.69v70.06h79.32v-68.98c13.21,13.21,26.41,26.41,39.62,39.62l9,9,9-9,38.08-38.08,9-9-9-9c-13.39-13.39-26.77-26.78-40.16-40.16h69.53v-79.32h-12.73Z"/>
</svg>